# xmcd CD database file
#
# Track frame offsets:
#	150
#	16585
#	34950
#	50242
#	65770
#	76770
#	90297
#	106530
#	124187
#	138315
#	152230
#	167362
#
# Disc length: 2385 seconds
#
# Revision: 0
# Processed by: cddbd v1.4PL0 Copyright (c) Steve Scherf et al.
# Submitted via: Feurio! 1.65 - http://www.feurio.com
#
DISCID=8b094f0c
DTITLE=Various Artist - country in old germany
DYEAR=1994
DGENRE=Country
TTITLE0=max zwo - Die Mad'ln Vom Land
TTITLE1=pete carson - Lebewohl Mein Kleiner Bruder
TTITLE2=hana and Dana - Tu' Was Du Nicht Lassen Kannst
TTITLE3=joe hodginks boss band - Nimm Dir Zeit Fuer Deine Freunde
TTITLE4=tex harper - Mit Country Musik Kann Man Erzaehlen
TTITLE5=pete carson - Truckin' Roll
TTITLE6=dave dudley - Sunday Here In Deutschland
TTITLE7=linda feller - Es Faellt Mir Schwer Dir Zu Glauben
TTITLE8=pete carson - Countryjodel
TTITLE9=george and lucky riders - Ich Moecht' So Gern Dave Dudley Hoer'n
TTITLE10=dagmar - Traenen Wie Feuer
TTITLE11=greyhounds - Nimm Es Leicht
EXTD=
EXTT0=
EXTT1=
EXTT2=
EXTT3=
EXTT4=
EXTT5=
EXTT6=
EXTT7=
EXTT8=
EXTT9=
EXTT10=
EXTT11=
PLAYORDER=
